<?xml version="1.0" encoding="UTF-8" standalone="no"?>
<!DOCTYPE svg PUBLIC "-//W3C//DTD SVG 1.1//EN"
 "http://www.w3.org/Graphics/SVG/1.1/DTD/svg11.dtd">
<!-- Generated by graphviz version 7.0.6 (20230106.0513)
 -->
<!-- Title: dependency&#45;cruiser output Pages: 1 -->
<svg width="526pt" height="448pt"
 viewBox="0.00 0.00 526.00 448.00" xmlns="http://www.w3.org/2000/svg" xmlns:xlink="http://www.w3.org/1999/xlink">
<g id="graph0" class="graph" transform="scale(1 1) rotate(0) translate(4 444)">
<title>dependency&#45;cruiser output</title>
<polygon fill="white" stroke="none" points="-4,4 -4,-444 522,-444 522,4 -4,4"/>
<g id="clust1" class="cluster">
<title>cluster_src</title>
<path fill="#ffffff" stroke="black" stroke-width="2" d="M20,-8C20,-8 498,-8 498,-8 504,-8 510,-14 510,-20 510,-20 510,-420 510,-420 510,-426 504,-432 498,-432 498,-432 20,-432 20,-432 14,-432 8,-426 8,-420 8,-420 8,-20 8,-20 8,-14 14,-8 20,-8"/>
<text text-anchor="middle" x="259" y="-420.8" font-family="Helvetica,sans-Serif" font-weight="bold" font-size="9.00">src</text>
</g>
<g id="clust2" class="cluster">
<title>cluster_src/components</title>
<path fill="#ffffff" stroke="black" stroke-width="2" d="M295,-148C295,-148 490,-148 490,-148 496,-148 502,-154 502,-160 502,-160 502,-368 502,-368 502,-374 496,-380 490,-380 490,-380 295,-380 295,-380 289,-380 283,-374 283,-368 283,-368 283,-160 283,-160 283,-154 289,-148 295,-148"/>
<text text-anchor="middle" x="392.5" y="-368.8" font-family="Helvetica,sans-Serif" font-weight="bold" font-size="9.00">components</text>
</g>
<g id="clust3" class="cluster">
<title>cluster_src/components/Buttons</title>
<path fill="#ffffff" stroke="black" stroke-width="2" d="M303.5,-156C303.5,-156 458,-156 458,-156 464,-156 470,-162 470,-168 470,-168 470,-196 470,-196 470,-202 464,-208 458,-208 458,-208 303.5,-208 303.5,-208 297.5,-208 291.5,-202 291.5,-196 291.5,-196 291.5,-168 291.5,-168 291.5,-162 297.5,-156 303.5,-156"/>
<text text-anchor="middle" x="380.75" y="-196.8" font-family="Helvetica,sans-Serif" font-weight="bold" font-size="9.00">Buttons</text>
</g>
<g id="clust4" class="cluster">
<title>cluster_src/components/Form</title>
<path fill="#ffffff" stroke="black" stroke-width="2" d="M307,-216C307,-216 482,-216 482,-216 488,-216 494,-222 494,-228 494,-228 494,-316 494,-316 494,-322 488,-328 482,-328 482,-328 307,-328 307,-328 301,-328 295,-322 295,-316 295,-316 295,-228 295,-228 295,-222 301,-216 307,-216"/>
<text text-anchor="middle" x="394.5" y="-316.8" font-family="Helvetica,sans-Serif" font-weight="bold" font-size="9.00">Form</text>
</g>
<g id="clust5" class="cluster">
<title>cluster_src/hooks</title>
<path fill="#ffffff" stroke="black" stroke-width="2" d="M298.5,-16C298.5,-16 361.5,-16 361.5,-16 367.5,-16 373.5,-22 373.5,-28 373.5,-28 373.5,-116 373.5,-116 373.5,-122 367.5,-128 361.5,-128 361.5,-128 298.5,-128 298.5,-128 292.5,-128 286.5,-122 286.5,-116 286.5,-116 286.5,-28 286.5,-28 286.5,-22 292.5,-16 298.5,-16"/>
<text text-anchor="middle" x="330" y="-116.8" font-family="Helvetica,sans-Serif" font-weight="bold" font-size="9.00">hooks</text>
</g>
<g id="clust6" class="cluster">
<title>cluster_src/routes</title>
<path fill="#ffffff" stroke="black" stroke-width="2" d="M210,-166C210,-166 263,-166 263,-166 269,-166 275,-172 275,-178 275,-178 275,-236 275,-236 275,-242 269,-248 263,-248 263,-248 210,-248 210,-248 204,-248 198,-242 198,-236 198,-236 198,-178 198,-178 198,-172 204,-166 210,-166"/>
<text text-anchor="middle" x="236.5" y="-236.8" font-family="Helvetica,sans-Serif" font-weight="bold" font-size="9.00">routes</text>
</g>
<g id="clust7" class="cluster">
<title>cluster_src/tests</title>
<path fill="#ffffff" stroke="black" stroke-width="2" d="M28,-239C28,-239 115,-239 115,-239 121,-239 127,-245 127,-251 127,-251 127,-339 127,-339 127,-345 121,-351 115,-351 115,-351 28,-351 28,-351 22,-351 16,-345 16,-339 16,-339 16,-251 16,-251 16,-245 22,-239 28,-239"/>
<text text-anchor="middle" x="71.5" y="-339.8" font-family="Helvetica,sans-Serif" font-weight="bold" font-size="9.00">tests</text>
</g>
<!-- src/App.jsx -->
<g id="node1" class="node">
<title>src/App.jsx</title>
<g id="a_node1"><a xlink:href="src/App.jsx" xlink:title="App.jsx">
<path fill="#ffff77" stroke="black" d="M183.5,-221C183.5,-221 141.5,-221 141.5,-221 138.5,-221 135.5,-218 135.5,-215 135.5,-215 135.5,-209 135.5,-209 135.5,-206 138.5,-203 141.5,-203 141.5,-203 183.5,-203 183.5,-203 186.5,-203 189.5,-206 189.5,-209 189.5,-209 189.5,-215 189.5,-215 189.5,-218 186.5,-221 183.5,-221"/>
<text text-anchor="start" x="147" y="-209.8" font-family="Helvetica,sans-Serif" font-size="9.00">App.jsx</text>
</a>
</g>
</g>
<!-- src/hooks/useApp.js -->
<g id="node2" class="node">
<title>src/hooks/useApp.js</title>
<g id="a_node2"><a xlink:href="src/hooks/useApp.js" xlink:title="useApp.js">
<path fill="#ffffcc" stroke="black" d="M352.5,-42C352.5,-42 307.5,-42 307.5,-42 304.5,-42 301.5,-39 301.5,-36 301.5,-36 301.5,-30 301.5,-30 301.5,-27 304.5,-24 307.5,-24 307.5,-24 352.5,-24 352.5,-24 355.5,-24 358.5,-27 358.5,-30 358.5,-30 358.5,-36 358.5,-36 358.5,-39 355.5,-42 352.5,-42"/>
<text text-anchor="start" x="309.5" y="-30.8" font-family="Helvetica,sans-Serif" font-size="9.00">useApp.js</text>
</a>
</g>
</g>
<!-- src/App.jsx&#45;&gt;src/hooks/useApp.js -->
<g id="edge1" class="edge">
<title>src/App.jsx&#45;&gt;src/hooks/useApp.js</title>
<path fill="none" stroke="#000000" stroke-width="2" stroke-opacity="0.200000" d="M184.28,-202.6C186.44,-200.98 188.41,-199.11 190,-197 199.31,-184.58 191.48,-177.09 198,-163 224.71,-105.33 231.45,-85.17 283,-48 286.07,-45.79 289.48,-43.89 293.01,-42.27"/>
<polygon fill="#000000" fill-opacity="0.200000" stroke="#000000" stroke-width="2" stroke-opacity="0.200000" points="293.78,-44.22 298.58,-40.06 292.23,-40.32 293.78,-44.22"/>
</g>
<!-- src/routes/Display.jsx -->
<g id="node3" class="node">
<title>src/routes/Display.jsx</title>
<g id="a_node3"><a xlink:href="src/routes/Display.jsx" xlink:title="Display.jsx">
<path fill="#ffff77" stroke="black" d="M261,-192C261,-192 212,-192 212,-192 209,-192 206,-189 206,-186 206,-186 206,-180 206,-180 206,-177 209,-174 212,-174 212,-174 261,-174 261,-174 264,-174 267,-177 267,-180 267,-180 267,-186 267,-186 267,-189 264,-192 261,-192"/>
<text text-anchor="start" x="214" y="-180.8" font-family="Helvetica,sans-Serif" font-size="9.00">Display.jsx</text>
</a>
</g>
</g>
<!-- src/App.jsx&#45;&gt;src/routes/Display.jsx -->
<g id="edge2" class="edge">
<title>src/App.jsx&#45;&gt;src/routes/Display.jsx</title>
<path fill="none" stroke="#000000" stroke-width="2" stroke-opacity="0.200000" d="M186.51,-202.65C190.34,-201.09 194.28,-199.5 198,-198 199.99,-197.2 202.04,-196.37 204.11,-195.54"/>
<polygon fill="#000000" fill-opacity="0.200000" stroke="#000000" stroke-width="2" stroke-opacity="0.200000" points="204.49,-197.65 209.28,-193.47 202.93,-193.75 204.49,-197.65"/>
</g>
<!-- src/routes/Setup.jsx -->
<g id="node4" class="node">
<title>src/routes/Setup.jsx</title>
<g id="a_node4"><a xlink:href="src/routes/Setup.jsx" xlink:title="Setup.jsx">
<path fill="#ffff77" stroke="black" d="M257.5,-222C257.5,-222 215.5,-222 215.5,-222 212.5,-222 209.5,-219 209.5,-216 209.5,-216 209.5,-210 209.5,-210 209.5,-207 212.5,-204 215.5,-204 215.5,-204 257.5,-204 257.5,-204 260.5,-204 263.5,-207 263.5,-210 263.5,-210 263.5,-216 263.5,-216 263.5,-219 260.5,-222 257.5,-222"/>
<text text-anchor="start" x="217.5" y="-210.8" font-family="Helvetica,sans-Serif" font-size="9.00">Setup.jsx</text>
</a>
</g>
</g>
<!-- src/App.jsx&#45;&gt;src/routes/Setup.jsx -->
<g id="edge3" class="edge">
<title>src/App.jsx&#45;&gt;src/routes/Setup.jsx</title>
<path fill="none" stroke="#000000" stroke-width="2" stroke-opacity="0.200000" d="M189.9,-212.37C193.23,-212.41 196.67,-212.46 200.11,-212.51"/>
<polygon fill="#000000" fill-opacity="0.200000" stroke="#000000" stroke-width="2" stroke-opacity="0.200000" points="200.05,-214.61 206.08,-212.59 200.1,-210.41 200.05,-214.61"/>
</g>
<!-- src/components/Buttons/Button.jsx -->
<g id="node5" class="node">
<title>src/components/Buttons/Button.jsx</title>
<g id="a_node5"><a xlink:href="src/components/Buttons/Button.jsx" xlink:title="Button.jsx">
<path fill="#ffff77" stroke="black" d="M456,-182C456,-182 412,-182 412,-182 409,-182 406,-179 406,-176 406,-176 406,-170 406,-170 406,-167 409,-164 412,-164 412,-164 456,-164 456,-164 459,-164 462,-167 462,-170 462,-170 462,-176 462,-176 462,-179 459,-182 456,-182"/>
<text text-anchor="start" x="414" y="-170.8" font-family="Helvetica,sans-Serif" font-size="9.00">Button.jsx</text>
</a>
</g>
</g>
<!-- src/routes/Display.jsx&#45;&gt;src/components/Buttons/Button.jsx -->
<g id="edge11" class="edge">
<title>src/routes/Display.jsx&#45;&gt;src/components/Buttons/Button.jsx</title>
<path fill="none" stroke="#000000" stroke-width="2" stroke-opacity="0.200000" d="M267.28,-175.63C270.11,-174.09 272.76,-172.24 275,-170 282.66,-162.35 274.18,-153.27 283,-147 321.16,-119.87 378.35,-142.74 409.95,-159.4"/>
<polygon fill="#000000" fill-opacity="0.200000" stroke="#000000" stroke-width="2" stroke-opacity="0.200000" points="408.84,-161.19 415.12,-162.23 410.86,-157.51 408.84,-161.19"/>
</g>
<!-- src/components/Buttons/Buttons.jsx -->
<g id="node6" class="node">
<title>src/components/Buttons/Buttons.jsx</title>
<g id="a_node6"><a xlink:href="src/components/Buttons/Buttons.jsx" xlink:title="Buttons.jsx">
<path fill="#ffff77" stroke="black" d="M354.5,-182C354.5,-182 305.5,-182 305.5,-182 302.5,-182 299.5,-179 299.5,-176 299.5,-176 299.5,-170 299.5,-170 299.5,-167 302.5,-164 305.5,-164 305.5,-164 354.5,-164 354.5,-164 357.5,-164 360.5,-167 360.5,-170 360.5,-170 360.5,-176 360.5,-176 360.5,-179 357.5,-182 354.5,-182"/>
<text text-anchor="start" x="307.5" y="-170.8" font-family="Helvetica,sans-Serif" font-size="9.00">Buttons.jsx</text>
</a>
</g>
</g>
<!-- src/routes/Display.jsx&#45;&gt;src/components/Buttons/Buttons.jsx -->
<g id="edge12" class="edge">
<title>src/routes/Display.jsx&#45;&gt;src/components/Buttons/Buttons.jsx</title>
<path fill="none" stroke="#000000" stroke-width="2" stroke-opacity="0.200000" d="M267.46,-179.73C274.8,-178.92 282.76,-178.05 290.45,-177.21"/>
<polygon fill="#000000" fill-opacity="0.200000" stroke="#000000" stroke-width="2" stroke-opacity="0.200000" points="290.54,-179.32 296.28,-176.58 290.08,-175.14 290.54,-179.32"/>
</g>
<!-- src/components/Form/index.js -->
<g id="node10" class="node">
<title>src/components/Form/index.js</title>
<g id="a_node10"><a xlink:href="src/components/Form/index.js" xlink:title="index.js">
<path fill="#ffffcc" stroke="black" d="M351,-242C351,-242 309,-242 309,-242 306,-242 303,-239 303,-236 303,-236 303,-230 303,-230 303,-227 306,-224 309,-224 309,-224 351,-224 351,-224 354,-224 357,-227 357,-230 357,-230 357,-236 357,-236 357,-239 354,-242 351,-242"/>
<text text-anchor="start" x="314" y="-230.8" font-family="Helvetica,sans-Serif" font-size="9.00">index.js</text>
</a>
</g>
</g>
<!-- src/routes/Display.jsx&#45;&gt;src/components/Form/index.js -->
<g id="edge13" class="edge">
<title>src/routes/Display.jsx&#45;&gt;src/components/Form/index.js</title>
<path fill="none" stroke="#000000" stroke-width="2" stroke-opacity="0.200000" d="M266.44,-192.32C269.5,-193.95 272.43,-195.83 275,-198 280.19,-202.37 277.96,-206.46 283,-211 286.54,-214.18 290.62,-217 294.86,-219.46"/>
<polygon fill="#000000" fill-opacity="0.200000" stroke="#000000" stroke-width="2" stroke-opacity="0.200000" points="293.61,-221.18 299.89,-222.11 295.56,-217.46 293.61,-221.18"/>
</g>
<!-- src/components/Scoreboard.jsx -->
<g id="node11" class="node">
<title>src/components/Scoreboard.jsx</title>
<g id="a_node11"><a xlink:href="src/components/Scoreboard.jsx" xlink:title="Scoreboard.jsx">
<path fill="#ffff77" stroke="black" d="M363,-354C363,-354 297,-354 297,-354 294,-354 291,-351 291,-348 291,-348 291,-342 291,-342 291,-339 294,-336 297,-336 297,-336 363,-336 363,-336 366,-336 369,-339 369,-342 369,-342 369,-348 369,-348 369,-351 366,-354 363,-354"/>
<text text-anchor="start" x="299" y="-342.8" font-family="Helvetica,sans-Serif" font-size="9.00">Scoreboard.jsx</text>
</a>
</g>
</g>
<!-- src/routes/Display.jsx&#45;&gt;src/components/Scoreboard.jsx -->
<g id="edge14" class="edge">
<title>src/routes/Display.jsx&#45;&gt;src/components/Scoreboard.jsx</title>
<path fill="none" stroke="#000000" stroke-width="2" stroke-opacity="0.200000" d="M267.28,-190.98C270.27,-192.85 272.95,-195.16 275,-198 292.33,-222.01 264.67,-307.75 283,-331 283.41,-331.52 283.83,-332.01 284.28,-332.49"/>
<polygon fill="#000000" fill-opacity="0.200000" stroke="#000000" stroke-width="2" stroke-opacity="0.200000" points="282.5,-333.77 288.5,-335.88 285.13,-330.49 282.5,-333.77"/>
</g>
<!-- src/hooks/useDisplay.js -->
<g id="node14" class="node">
<title>src/hooks/useDisplay.js</title>
<g id="a_node14"><a xlink:href="src/hooks/useDisplay.js" xlink:title="useDisplay.js">
<path fill="#ffffcc" stroke="black" d="M359.5,-102C359.5,-102 300.5,-102 300.5,-102 297.5,-102 294.5,-99 294.5,-96 294.5,-96 294.5,-90 294.5,-90 294.5,-87 297.5,-84 300.5,-84 300.5,-84 359.5,-84 359.5,-84 362.5,-84 365.5,-87 365.5,-90 365.5,-90 365.5,-96 365.5,-96 365.5,-99 362.5,-102 359.5,-102"/>
<text text-anchor="start" x="302.5" y="-90.8" font-family="Helvetica,sans-Serif" font-size="9.00">useDisplay.js</text>
</a>
</g>
</g>
<!-- src/routes/Display.jsx&#45;&gt;src/hooks/useDisplay.js -->
<g id="edge15" class="edge">
<title>src/routes/Display.jsx&#45;&gt;src/hooks/useDisplay.js</title>
<path fill="none" stroke="#000000" stroke-width="2" stroke-opacity="0.200000" d="M267.2,-176.1C270.12,-174.48 272.81,-172.48 275,-170 286.16,-157.41 274.44,-147.48 283,-133 288.89,-123.04 298.15,-114.28 306.81,-107.53"/>
<polygon fill="#000000" fill-opacity="0.200000" stroke="#000000" stroke-width="2" stroke-opacity="0.200000" points="307.84,-109.38 311.43,-104.13 305.35,-106 307.84,-109.38"/>
</g>
<!-- src/hooks/useTimer.js -->
<g id="node15" class="node">
<title>src/hooks/useTimer.js</title>
<g id="a_node15"><a xlink:href="src/hooks/useTimer.js" xlink:title="useTimer.js">
<path fill="#ffffcc" stroke="black" d="M355.5,-72C355.5,-72 304.5,-72 304.5,-72 301.5,-72 298.5,-69 298.5,-66 298.5,-66 298.5,-60 298.5,-60 298.5,-57 301.5,-54 304.5,-54 304.5,-54 355.5,-54 355.5,-54 358.5,-54 361.5,-57 361.5,-60 361.5,-60 361.5,-66 361.5,-66 361.5,-69 358.5,-72 355.5,-72"/>
<text text-anchor="start" x="306.5" y="-60.8" font-family="Helvetica,sans-Serif" font-size="9.00">useTimer.js</text>
</a>
</g>
</g>
<!-- src/routes/Display.jsx&#45;&gt;src/hooks/useTimer.js -->
<g id="edge16" class="edge">
<title>src/routes/Display.jsx&#45;&gt;src/hooks/useTimer.js</title>
<path fill="none" stroke="#000000" stroke-width="2" stroke-opacity="0.200000" d="M267.15,-176.57C270.16,-174.87 272.88,-172.72 275,-170 287.61,-153.81 270.24,-94.07 283,-78 285.05,-75.41 287.56,-73.27 290.34,-71.49"/>
<polygon fill="#000000" fill-opacity="0.200000" stroke="#000000" stroke-width="2" stroke-opacity="0.200000" points="291.03,-73.49 295.46,-68.93 289.15,-69.73 291.03,-73.49"/>
</g>
<!-- src/routes/Setup.jsx&#45;&gt;src/components/Buttons/Button.jsx -->
<g id="edge17" class="edge">
<title>src/routes/Setup.jsx&#45;&gt;src/components/Buttons/Button.jsx</title>
<path fill="none" stroke="#000000" stroke-width="2" stroke-opacity="0.200000" d="M263.92,-206.36C268.11,-204.28 272.04,-201.56 275,-198 286.59,-184.06 268.98,-169.49 283,-158 314.11,-132.5 333.58,-153.05 373.5,-158 381.26,-158.96 389.46,-160.61 397.21,-162.46"/>
<polygon fill="#000000" fill-opacity="0.200000" stroke="#000000" stroke-width="2" stroke-opacity="0.200000" points="396.45,-164.44 402.79,-163.88 397.49,-160.36 396.45,-164.44"/>
</g>
<!-- src/routes/Setup.jsx&#45;&gt;src/components/Form/index.js -->
<g id="edge18" class="edge">
<title>src/routes/Setup.jsx&#45;&gt;src/components/Form/index.js</title>
<path fill="none" stroke="#000000" stroke-width="2" stroke-opacity="0.200000" d="M263.97,-218.78C273.35,-220.84 284.07,-223.18 294.06,-225.36"/>
<polygon fill="#000000" fill-opacity="0.200000" stroke="#000000" stroke-width="2" stroke-opacity="0.200000" points="293.33,-227.35 299.64,-226.58 294.22,-223.25 293.33,-227.35"/>
</g>
<!-- src/config.js -->
<g id="node13" class="node">
<title>src/config.js</title>
<g id="a_node13"><a xlink:href="src/config.js" xlink:title="config.js">
<path fill="#ffffcc" stroke="black" d="M351,-406C351,-406 309,-406 309,-406 306,-406 303,-403 303,-400 303,-400 303,-394 303,-394 303,-391 306,-388 309,-388 309,-388 351,-388 351,-388 354,-388 357,-391 357,-394 357,-394 357,-400 357,-400 357,-403 354,-406 351,-406"/>
<text text-anchor="start" x="313" y="-394.8" font-family="Helvetica,sans-Serif" font-size="9.00">config.js</text>
</a>
</g>
</g>
<!-- src/routes/Setup.jsx&#45;&gt;src/config.js -->
<g id="edge19" class="edge">
<title>src/routes/Setup.jsx&#45;&gt;src/config.js</title>
<path fill="none" stroke="#000000" stroke-width="2" stroke-opacity="0.200000" d="M263.92,-217.67C268.22,-219.58 272.19,-222.25 275,-226 295.97,-253.94 261.49,-355.47 283,-383 286.02,-386.86 290.08,-389.69 294.53,-391.76"/>
<polygon fill="#000000" fill-opacity="0.200000" stroke="#000000" stroke-width="2" stroke-opacity="0.200000" points="293.64,-393.67 300,-393.69 295.05,-389.71 293.64,-393.67"/>
</g>
<!-- src/components/Buttons/Buttons.jsx&#45;&gt;src/components/Buttons/Button.jsx -->
<g id="edge4" class="edge">
<title>src/components/Buttons/Buttons.jsx&#45;&gt;src/components/Buttons/Button.jsx</title>
<path fill="none" stroke="#000000" stroke-width="2" stroke-opacity="0.200000" d="M360.78,-173C372.12,-173 385.16,-173 397.01,-173"/>
<polygon fill="#000000" fill-opacity="0.200000" stroke="#000000" stroke-width="2" stroke-opacity="0.200000" points="396.77,-175.1 402.77,-173 396.77,-170.9 396.77,-175.1"/>
</g>
<!-- src/components/Form/HomeAwaySwitch.jsx -->
<g id="node7" class="node">
<title>src/components/Form/HomeAwaySwitch.jsx</title>
<g id="a_node7"><a xlink:href="src/components/Form/HomeAwaySwitch.jsx" xlink:title="HomeAwaySwitch.jsx">
<path fill="#ffff77" stroke="black" d="M480,-242C480,-242 388,-242 388,-242 385,-242 382,-239 382,-236 382,-236 382,-230 382,-230 382,-227 385,-224 388,-224 388,-224 480,-224 480,-224 483,-224 486,-227 486,-230 486,-230 486,-236 486,-236 486,-239 483,-242 480,-242"/>
<text text-anchor="start" x="390" y="-230.8" font-family="Helvetica,sans-Serif" font-size="9.00">HomeAwaySwitch.jsx</text>
</a>
</g>
</g>
<!-- src/components/Form/NumericalInput.jsx -->
<g id="node8" class="node">
<title>src/components/Form/NumericalInput.jsx</title>
<g id="a_node8"><a xlink:href="src/components/Form/NumericalInput.jsx" xlink:title="NumericalInput.jsx">
<path fill="#ffff77" stroke="black" d="M474,-272C474,-272 394,-272 394,-272 391,-272 388,-269 388,-266 388,-266 388,-260 388,-260 388,-257 391,-254 394,-254 394,-254 474,-254 474,-254 477,-254 480,-257 480,-260 480,-260 480,-266 480,-266 480,-269 477,-272 474,-272"/>
<text text-anchor="start" x="396" y="-260.8" font-family="Helvetica,sans-Serif" font-size="9.00">NumericalInput.jsx</text>
</a>
</g>
</g>
<!-- src/components/Form/Select.jsx -->
<g id="node9" class="node">
<title>src/components/Form/Select.jsx</title>
<g id="a_node9"><a xlink:href="src/components/Form/Select.jsx" xlink:title="Select.jsx">
<path fill="#ffff77" stroke="black" d="M456,-302C456,-302 412,-302 412,-302 409,-302 406,-299 406,-296 406,-296 406,-290 406,-290 406,-287 409,-284 412,-284 412,-284 456,-284 456,-284 459,-284 462,-287 462,-290 462,-290 462,-296 462,-296 462,-299 459,-302 456,-302"/>
<text text-anchor="start" x="414" y="-290.8" font-family="Helvetica,sans-Serif" font-size="9.00">Select.jsx</text>
</a>
</g>
</g>
<!-- src/components/Form/index.js&#45;&gt;src/components/Form/HomeAwaySwitch.jsx -->
<g id="edge5" class="edge">
<title>src/components/Form/index.js&#45;&gt;src/components/Form/HomeAwaySwitch.jsx</title>
<path fill="none" stroke="#000000" stroke-width="2" stroke-opacity="0.200000" d="M357.27,-233C362.23,-233 367.6,-233 373.11,-233"/>
<polygon fill="#000000" fill-opacity="0.200000" stroke="#000000" stroke-width="2" stroke-opacity="0.200000" points="372.82,-235.1 378.82,-233 372.82,-230.9 372.82,-235.1"/>
</g>
<!-- src/components/Form/index.js&#45;&gt;src/components/Form/NumericalInput.jsx -->
<g id="edge6" class="edge">
<title>src/components/Form/index.js&#45;&gt;src/components/Form/NumericalInput.jsx</title>
<path fill="none" stroke="#000000" stroke-width="2" stroke-opacity="0.200000" d="M357.27,-240.73C368,-243.88 380.67,-247.61 392.53,-251.1"/>
<polygon fill="#000000" fill-opacity="0.200000" stroke="#000000" stroke-width="2" stroke-opacity="0.200000" points="391.74,-253.05 398.09,-252.73 392.93,-249.03 391.74,-253.05"/>
</g>
<!-- src/components/Form/index.js&#45;&gt;src/components/Form/Select.jsx -->
<g id="edge7" class="edge">
<title>src/components/Form/index.js&#45;&gt;src/components/Form/Select.jsx</title>
<path fill="none" stroke="#000000" stroke-width="2" stroke-opacity="0.200000" d="M357.13,-236.54C363.17,-238.47 369.11,-241.44 373.5,-246 383.71,-256.6 371.73,-267.46 382,-278 386.2,-282.31 391.56,-285.4 397.23,-287.6"/>
<polygon fill="#000000" fill-opacity="0.200000" stroke="#000000" stroke-width="2" stroke-opacity="0.200000" points="396.4,-289.55 402.76,-289.34 397.66,-285.54 396.4,-289.55"/>
</g>
<!-- src/utils.js -->
<g id="node12" class="node">
<title>src/utils.js</title>
<g id="a_node12"><a xlink:href="src/utils.js" xlink:title="utils.js">
<path fill="#ffffcc" stroke="black" d="M455,-406C455,-406 413,-406 413,-406 410,-406 407,-403 407,-400 407,-400 407,-394 407,-394 407,-391 410,-388 413,-388 413,-388 455,-388 455,-388 458,-388 461,-391 461,-394 461,-394 461,-400 461,-400 461,-403 458,-406 455,-406"/>
<text text-anchor="start" x="421" y="-394.8" font-family="Helvetica,sans-Serif" font-size="9.00">utils.js</text>
</a>
</g>
</g>
<!-- src/components/Scoreboard.jsx&#45;&gt;src/utils.js -->
<g id="edge8" class="edge">
<title>src/components/Scoreboard.jsx&#45;&gt;src/utils.js</title>
<path fill="none" stroke="#000000" stroke-width="2" stroke-opacity="0.200000" d="M364.74,-354.35C367.75,-355.47 370.71,-356.69 373.5,-358 387.67,-364.65 402.4,-374.27 413.65,-382.3"/>
<polygon fill="#000000" fill-opacity="0.200000" stroke="#000000" stroke-width="2" stroke-opacity="0.200000" points="412.31,-383.92 418.4,-385.76 414.79,-380.52 412.31,-383.92"/>
</g>
<!-- src/index.css -->
<g id="node16" class="node">
<title>src/index.css</title>
<g id="a_node16"><a xlink:href="src/index.css" xlink:title="index.css">
<path fill="#ffffcc" stroke="black" d="M184,-191C184,-191 141,-191 141,-191 138,-191 135,-188 135,-185 135,-185 135,-179 135,-179 135,-176 138,-173 141,-173 141,-173 184,-173 184,-173 187,-173 190,-176 190,-179 190,-179 190,-185 190,-185 190,-188 187,-191 184,-191"/>
<text text-anchor="start" x="143" y="-179.8" font-family="Helvetica,sans-Serif" font-size="9.00">index.css</text>
</a>
</g>
</g>
<!-- src/main.jsx -->
<g id="node17" class="node">
<title>src/main.jsx</title>
<g id="a_node17"><a xlink:href="src/main.jsx" xlink:title="main.jsx">
<path fill="#ffff77" stroke="black" d="M92.5,-219C92.5,-219 50.5,-219 50.5,-219 47.5,-219 44.5,-216 44.5,-213 44.5,-213 44.5,-207 44.5,-207 44.5,-204 47.5,-201 50.5,-201 50.5,-201 92.5,-201 92.5,-201 95.5,-201 98.5,-204 98.5,-207 98.5,-207 98.5,-213 98.5,-213 98.5,-216 95.5,-219 92.5,-219"/>
<text text-anchor="start" x="54.5" y="-207.8" font-family="Helvetica,sans-Serif" font-size="9.00">main.jsx</text>
</a>
</g>
</g>
<!-- src/main.jsx&#45;&gt;src/App.jsx -->
<g id="edge9" class="edge">
<title>src/main.jsx&#45;&gt;src/App.jsx</title>
<path fill="none" stroke="#000000" stroke-width="2" stroke-opacity="0.200000" d="M98.72,-210.59C107.34,-210.78 117.06,-211 126.23,-211.21"/>
<polygon fill="#000000" fill-opacity="0.200000" stroke="#000000" stroke-width="2" stroke-opacity="0.200000" points="126.09,-213.3 132.13,-211.34 126.18,-209.11 126.09,-213.3"/>
</g>
<!-- src/main.jsx&#45;&gt;src/index.css -->
<g id="edge10" class="edge">
<title>src/main.jsx&#45;&gt;src/index.css</title>
<path fill="none" stroke="#000000" stroke-width="2" stroke-opacity="0.200000" d="M98.72,-201.75C107.27,-199.06 116.91,-196.03 126.02,-193.16"/>
<polygon fill="#000000" fill-opacity="0.200000" stroke="#000000" stroke-width="2" stroke-opacity="0.200000" points="126.56,-195.19 131.65,-191.39 125.3,-191.19 126.56,-195.19"/>
</g>
<!-- src/setupTests.js -->
<g id="node18" class="node">
<title>src/setupTests.js</title>
<g id="a_node18"><a xlink:href="src/setupTests.js" xlink:title="setupTests.js">
<path fill="#ccffcc" stroke="black" d="M100,-118C100,-118 43,-118 43,-118 40,-118 37,-115 37,-112 37,-112 37,-106 37,-106 37,-103 40,-100 43,-100 43,-100 100,-100 100,-100 103,-100 106,-103 106,-106 106,-106 106,-112 106,-112 106,-115 103,-118 100,-118"/>
<text text-anchor="start" x="45" y="-106.8" font-family="Helvetica,sans-Serif" font-size="9.00">setupTests.js</text>
</a>
</g>
</g>
<!-- src/tests/App.test.jsx -->
<g id="node19" class="node">
<title>src/tests/App.test.jsx</title>
<g id="a_node19"><a xlink:href="src/tests/App.test.jsx" xlink:title="App.test.jsx">
<path fill="#ffff77" stroke="black" d="M97,-265C97,-265 46,-265 46,-265 43,-265 40,-262 40,-259 40,-259 40,-253 40,-253 40,-250 43,-247 46,-247 46,-247 97,-247 97,-247 100,-247 103,-250 103,-253 103,-253 103,-259 103,-259 103,-262 100,-265 97,-265"/>
<text text-anchor="start" x="48" y="-253.8" font-family="Helvetica,sans-Serif" font-size="9.00">App.test.jsx</text>
</a>
</g>
</g>
<!-- src/tests/App.test.jsx&#45;&gt;src/App.jsx -->
<g id="edge20" class="edge">
<title>src/tests/App.test.jsx&#45;&gt;src/App.jsx</title>
<path fill="none" stroke="#000000" stroke-width="2" stroke-opacity="0.200000" d="M103.45,-251.42C111.41,-249.5 119.76,-246.8 127,-243 134.48,-239.07 141.63,-233.16 147.46,-227.54"/>
<polygon fill="#000000" fill-opacity="0.200000" stroke="#000000" stroke-width="2" stroke-opacity="0.200000" points="148.82,-229.15 151.52,-223.39 145.82,-226.21 148.82,-229.15"/>
</g>
<!-- src/tests/App.test.jsx&#45;&gt;src/config.js -->
<g id="edge21" class="edge">
<title>src/tests/App.test.jsx&#45;&gt;src/config.js</title>
<path fill="none" stroke="#000000" stroke-width="2" stroke-opacity="0.200000" d="M103.46,-262.48C111.34,-264.68 119.65,-267.49 127,-271 204.02,-307.79 206.48,-345.18 283,-383 286.55,-384.75 290.36,-386.34 294.21,-387.76"/>
<polygon fill="#000000" fill-opacity="0.200000" stroke="#000000" stroke-width="2" stroke-opacity="0.200000" points="293.41,-389.7 299.77,-389.63 294.76,-385.72 293.41,-389.7"/>
</g>
<!-- src/tests/Display.test.jsx -->
<g id="node20" class="node">
<title>src/tests/Display.test.jsx</title>
<g id="a_node20"><a xlink:href="src/tests/Display.test.jsx" xlink:title="Display.test.jsx">
<path fill="#ffff77" stroke="black" d="M104,-295C104,-295 39,-295 39,-295 36,-295 33,-292 33,-289 33,-289 33,-283 33,-283 33,-280 36,-277 39,-277 39,-277 104,-277 104,-277 107,-277 110,-280 110,-283 110,-283 110,-289 110,-289 110,-292 107,-295 104,-295"/>
<text text-anchor="start" x="41" y="-283.8" font-family="Helvetica,sans-Serif" font-size="9.00">Display.test.jsx</text>
</a>
</g>
</g>
<!-- src/tests/Display.test.jsx&#45;&gt;src/routes/Display.jsx -->
<g id="edge22" class="edge">
<title>src/tests/Display.test.jsx&#45;&gt;src/routes/Display.jsx</title>
<path fill="none" stroke="#000000" stroke-width="2" stroke-opacity="0.200000" d="M110.39,-294.45C136.28,-297.82 169.5,-297 190,-277 202.63,-264.68 187.38,-212.09 198,-198 198.4,-197.47 198.81,-196.97 199.25,-196.48"/>
<polygon fill="#000000" fill-opacity="0.200000" stroke="#000000" stroke-width="2" stroke-opacity="0.200000" points="200.19,-198.42 203.49,-192.99 197.52,-195.18 200.19,-198.42"/>
</g>
<!-- src/tests/Scoreboard.test.jsx -->
<g id="node21" class="node">
<title>src/tests/Scoreboard.test.jsx</title>
<g id="a_node21"><a xlink:href="src/tests/Scoreboard.test.jsx" xlink:title="Scoreboard.test.jsx">
<path fill="#ffff77" stroke="black" d="M113,-325C113,-325 30,-325 30,-325 27,-325 24,-322 24,-319 24,-319 24,-313 24,-313 24,-310 27,-307 30,-307 30,-307 113,-307 113,-307 116,-307 119,-310 119,-313 119,-313 119,-319 119,-319 119,-322 116,-325 113,-325"/>
<text text-anchor="start" x="32" y="-313.8" font-family="Helvetica,sans-Serif" font-size="9.00">Scoreboard.test.jsx</text>
</a>
</g>
</g>
<!-- src/tests/Scoreboard.test.jsx&#45;&gt;src/components/Scoreboard.jsx -->
<g id="edge23" class="edge">
<title>src/tests/Scoreboard.test.jsx&#45;&gt;src/components/Scoreboard.jsx</title>
<path fill="none" stroke="#000000" stroke-width="2" stroke-opacity="0.200000" d="M119.25,-321.29C165.31,-326.49 235.31,-334.41 281.6,-339.64"/>
<polygon fill="#000000" fill-opacity="0.200000" stroke="#000000" stroke-width="2" stroke-opacity="0.200000" points="281.32,-341.72 287.52,-340.31 281.79,-337.55 281.32,-341.72"/>
</g>
</g>
</svg>
